<?xml version="1.0" encoding="UTF-8" standalone="no"?><!DOCTYPE svg PUBLIC "-//W3C//DTD SVG 1.1//EN" "http://www.w3.org/Graphics/SVG/1.1/DTD/svg11.dtd"><svg width="100%" height="100%" viewBox="0 0 3544 3544" version="1.1" xmlns="http://www.w3.org/2000/svg" xmlns:xlink="http://www.w3.org/1999/xlink" xml:space="preserve" xmlns:serif="http://www.serif.com/" style="fill-rule:evenodd;clip-rule:evenodd;stroke-linecap:round;stroke-linejoin:round;stroke-miterlimit:1.5;"><g><path d="M831.22,1171.737c0,0 293.927,-519.22 995.198,-541.534c0,0 494.444,-46.936 945.03,470.13c0,0 371.949,443.969 343.787,1022.59c0,0 10.31,543.96 -289.772,936.413c0,0 620.081,-468.717 608.2,-1284.63c0,0 38.133,-642.092 -450.463,-1144.502c0,0 -328.649,-359.455 -908.761,-377.072c0,0 -867.576,-38.002 -1243.218,918.606Z" style="fill:#bbdd36;stroke:#bbdd37;stroke-width:18.29px;"/><path d="M2313.802,182.868c0,0 -1600.645,-204.322 -1656.938,1585.885c0,0 -11.876,791.468 828.455,1066.473c0,0 -701.946,46.858 -1156.901,-523.947c-149.642,-187.076 -227.458,-421.493 -219.396,-660.92c9.644,-295.558 99.372,-732.673 483.782,-1084.646c0,-0 694.404,-731.756 1720.998,-382.846Z" style="fill:#28560c;stroke:#28560c;stroke-width:18.29px;"/><path d="M157.929,2260.584c0,0 570.344,881.159 1757.897,607.656c0,0 1297.128,-252.089 865.243,-1563.95c0,-0 587.549,843.207 -93.53,1755.045c-0.03,0.04 -0.059,0.08 -0.088,0.12c-6.027,8.201 -322.433,433.22 -1123.99,376.959c0,0 -993.529,-45.439 -1405.532,-1175.83Z" style="fill:#2faa4e;fill-opacity:1;stroke:#2faa4e;stroke-width:18.34px;"/></g></svg>